<svg xmlns="http://www.w3.org/2000/svg" xmlns:xlink="http://www.w3.org/1999/xlink" contentStyleType="text/css" data-diagram-type="ACTIVITY" height="1118px" preserveAspectRatio="none" style="width:591px;height:1118px;background:#FFFFFF;" version="1.1" viewBox="0 0 591 1118" width="591px" zoomAndPan="magnify"><?plantuml 1.2026.3?><defs/><g><g class="title" data-source-line="1"><text fill="#000000" font-family="Helvetica" font-size="14" font-weight="700" lengthAdjust="spacing" textLength="406.9434" x="91.5215" y="30.7803">&#1058;&#1077;&#1082;&#1091;&#1097;&#1080;&#1081; &#1087;&#1072;&#1081;&#1087;&#1083;&#1072;&#1081;&#1085; &#1075;&#1077;&#1085;&#1077;&#1088;&#1072;&#1094;&#1080;&#1080; &#1041;&#1060;&#1058; (bft-writer) &#8212; 10 &#1089;&#1090;&#1072;&#1076;&#1080;&#1081;</text></g><ellipse cx="142.7041" cy="60" fill="#222222" rx="10" ry="10" style="stroke:#222222;stroke-width:1;"/><path d="M231.0635,88 L231.0635,102 L211.0635,106 L231.0635,110 L231.0635,124 A0,0 0 0 0 231.0635,124 L457.2896,124 A0,0 0 0 0 457.2896,124 L457.2896,98 L447.2896,88 L231.0635,88 A0,0 0 0 0 231.0635,88" fill="#FFF6D5" style="stroke:#C9A227;stroke-width:0.5;"/><path d="M447.2896,88 L447.2896,98 L457.2896,98 L447.2896,88" fill="#FFF6D5" style="stroke:#C9A227;stroke-width:0.5;"/><text fill="#000000" font-family="Helvetica" font-size="13" lengthAdjust="spacing" textLength="204.5151" x="237.0635" y="103.0103">&#1057;&#1090;&#1072;&#1076;&#1080;&#1103; 0. &#1047;&#1040;&#1063;&#1045;&#1052; &#1080;&#1085;&#1074;&#1077;&#1089;&#1090;&#1080;&#1088;&#1086;&#1074;&#1072;&#1090;&#1100;</text><text fill="#000000" font-family="Helvetica" font-size="13" lengthAdjust="spacing" textLength="205.2261" x="237.0635" y="116.0103">&#1094;&#1077;&#1085;&#1085;&#1086;&#1089;&#1090;&#1100; &#8592; KR/&#1089;&#1090;&#1088;&#1072;&#1090;&#1077;&#1075;&#1080;&#1103; [STOP]</text><rect fill="#EAF2F8" height="32" rx="12.5" ry="12.5" style="stroke:#33668E;stroke-width:0.5;" width="136.7188" x="74.3447" y="90"/><text fill="#000000" font-family="Helvetica" font-size="12" lengthAdjust="spacing" textLength="116.7188" x="84.3447" y="109.2402">/bft-value &#8594; value.md</text><rect fill="#EAF2F8" height="44" rx="12.5" ry="12.5" style="stroke:#33668E;stroke-width:0.5;" width="164.7734" x="60.3174" y="192"/><text fill="#000000" font-family="Helvetica" font-size="12" lengthAdjust="spacing" textLength="101.2207" x="70.3174" y="211.2402">&#1042;&#1077;&#1088;&#1085;&#1091;&#1090;&#1100; &#1087;&#1088;&#1086;&#1076;&#1091;&#1082;&#1090;&#1091;</text><text fill="#000000" font-family="Helvetica" font-size="12" lengthAdjust="spacing" textLength="144.7734" x="70.3174" y="223.2402">(&#1088;&#1072;&#1079;&#1088;&#1072;&#1073;&#1086;&#1090;&#1082;&#1091; &#1085;&#1077; &#1085;&#1072;&#1095;&#1080;&#1085;&#1072;&#1090;&#1100;)</text><ellipse cx="142.7041" cy="270.5" fill="none" rx="11" ry="11" style="stroke:#222222;stroke-width:1;"/><ellipse cx="142.7041" cy="270.5" fill="#222222" rx="6" ry="6" style="stroke:#222222;stroke-width:1;"/><polygon fill="#EAF2F8" points="89.2188,144,196.1895,144,208.1895,156,196.1895,168,89.2188,168,77.2188,156,89.2188,144" style="stroke:#33668E;stroke-width:0.5;"/><text fill="#000000" font-family="Helvetica" font-size="11" lengthAdjust="spacing" textLength="17.7354" x="146.7041" y="176.4702">&#1085;&#1077;&#1090;</text><text fill="#000000" font-family="Helvetica" font-size="11" lengthAdjust="spacing" textLength="106.9707" x="89.2188" y="158.9702">&#1062;&#1077;&#1085;&#1085;&#1086;&#1089;&#1090;&#1100; &#1076;&#1086;&#1082;&#1072;&#1079;&#1072;&#1085;&#1072;?</text><text fill="#000000" font-family="Helvetica" font-size="11" lengthAdjust="spacing" textLength="12.7832" x="208.1895" y="153.4702">&#1076;&#1072;</text><path d="M276.415,321.5 L276.415,335.5 L256.415,339.5 L276.415,343.5 L276.415,357.5 A0,0 0 0 0 276.415,357.5 L570.9863,357.5 A0,0 0 0 0 570.9863,357.5 L570.9863,331.5 L560.9863,321.5 L276.415,321.5 A0,0 0 0 0 276.415,321.5" fill="#FFF6D5" style="stroke:#C9A227;stroke-width:0.5;"/><path d="M560.9863,321.5 L560.9863,331.5 L570.9863,331.5 L560.9863,321.5" fill="#FFF6D5" style="stroke:#C9A227;stroke-width:0.5;"/><text fill="#000000" font-family="Helvetica" font-size="13" lengthAdjust="spacing" textLength="273.5713" x="282.415" y="336.5103">&#1057;&#1090;&#1072;&#1076;&#1080;&#1103; 1. &#1050;&#1086;&#1088;&#1090;&#1077;&#1082;&#1089;&#1099; C1-C5 + &#1053;&#1077;&#1082;&#1089;&#1091;&#1089;&#1099; N1-N7</text><text fill="#000000" font-family="Helvetica" font-size="13" lengthAdjust="spacing" textLength="155.5811" x="282.415" y="349.5103">[STOP: PO &#1088;&#1077;&#1074;&#1100;&#1102;&#1080;&#1090; pack]</text><rect fill="#EAF2F8" height="32" rx="12.5" ry="12.5" style="stroke:#33668E;stroke-width:0.5;" width="227.4219" x="28.9932" y="323.5"/><text fill="#000000" font-family="Helvetica" font-size="12" lengthAdjust="spacing" textLength="207.4219" x="38.9932" y="342.7402">/bft-context-gen &#8594; bft-context-pack.md</text><path d="M289.4082,375.5 L289.4082,389.5 L269.4082,393.5 L289.4082,397.5 L289.4082,411.5 A0,0 0 0 0 289.4082,411.5 L479.624,411.5 A0,0 0 0 0 479.624,411.5 L479.624,385.5 L469.624,375.5 L289.4082,375.5 A0,0 0 0 0 289.4082,375.5" fill="#FFF6D5" style="stroke:#C9A227;stroke-width:0.5;"/><path d="M469.624,375.5 L469.624,385.5 L479.624,385.5 L469.624,375.5" fill="#FFF6D5" style="stroke:#C9A227;stroke-width:0.5;"/><text fill="#000000" font-family="Helvetica" font-size="13" lengthAdjust="spacing" textLength="157.4092" x="295.4082" y="390.5103">&#1057;&#1090;&#1072;&#1076;&#1080;&#1103; 1.5. &#1050;&#1072;&#1088;&#1090;&#1072; &#1089;&#1074;&#1103;&#1079;&#1077;&#1081;</text><text fill="#000000" font-family="Helvetica" font-size="13" lengthAdjust="spacing" textLength="169.2158" x="295.4082" y="403.5103">&#1089; &#1082;&#1086;&#1084;&#1072;&#1085;&#1076;&#1072;&#1084;&#1080; &#1074;&#1086;&#1082;&#1088;&#1091;&#1075; [STOP]</text><rect fill="#EAF2F8" height="32" rx="12.5" ry="12.5" style="stroke:#33668E;stroke-width:0.5;" width="253.4082" x="16" y="377.5"/><text fill="#000000" font-family="Helvetica" font-size="12" lengthAdjust="spacing" textLength="233.4082" x="26" y="396.7402">/bft-ext-teams &#8594; external-teams-actions.md</text><path d="M245.7295,429.5 L245.7295,443.5 L225.7295,447.5 L245.7295,451.5 L245.7295,465.5 A0,0 0 0 0 245.7295,465.5 L445.7778,465.5 A0,0 0 0 0 445.7778,465.5 L445.7778,439.5 L435.7778,429.5 L245.7295,429.5 A0,0 0 0 0 245.7295,429.5" fill="#FFF6D5" style="stroke:#C9A227;stroke-width:0.5;"/><path d="M435.7778,429.5 L435.7778,439.5 L445.7778,439.5 L435.7778,429.5" fill="#FFF6D5" style="stroke:#C9A227;stroke-width:0.5;"/><text fill="#000000" font-family="Helvetica" font-size="13" lengthAdjust="spacing" textLength="179.0483" x="251.7295" y="444.5103">&#1057;&#1090;&#1072;&#1076;&#1080;&#1103; 2. &#1044;&#1080;&#1072;&#1075;&#1085;&#1086;&#1079; As-Is/Gap,</text><text fill="#000000" font-family="Helvetica" font-size="13" lengthAdjust="spacing" textLength="129.6509" x="251.7295" y="457.5103">&#1041;&#1045;&#1047; &#1088;&#1077;&#1096;&#1077;&#1085;&#1080;&#1103; [STOP]</text><rect fill="#EAF2F8" height="32" rx="12.5" ry="12.5" style="stroke:#33668E;stroke-width:0.5;" width="166.0508" x="59.6787" y="431.5"/><text fill="#000000" font-family="Helvetica" font-size="12" lengthAdjust="spacing" textLength="146.0508" x="69.6787" y="450.7402">/bft-problem &#8594; problem.md</text><path d="M244.4053,534 L244.4053,541.5 L224.4053,545.5 L244.4053,549.5 L244.4053,557 A0,0 0 0 0 244.4053,557 L512.6147,557 A0,0 0 0 0 512.6147,557 L512.6147,544 L502.6147,534 L244.4053,534 A0,0 0 0 0 244.4053,534" fill="#FFF6D5" style="stroke:#C9A227;stroke-width:0.5;"/><path d="M502.6147,534 L502.6147,544 L512.6147,544 L502.6147,534" fill="#FFF6D5" style="stroke:#C9A227;stroke-width:0.5;"/><text fill="#000000" font-family="Helvetica" font-size="13" lengthAdjust="spacing" textLength="247.2095" x="250.4053" y="549.0103">&#1057;&#1090;&#1072;&#1076;&#1080;&#1103; 3. 2-3 &#1082;&#1086;&#1085;&#1094;&#1077;&#1087;&#1090;&#1072; &#1088;&#1077;&#1096;&#1077;&#1085;&#1080;&#1103; [STOP]</text><rect fill="#EAF2F8" height="32" rx="12.5" ry="12.5" style="stroke:#33668E;stroke-width:0.5;" width="163.4023" x="61.0029" y="529.5"/><text fill="#000000" font-family="Helvetica" font-size="12" lengthAdjust="spacing" textLength="143.4023" x="71.0029" y="548.7402">/bft-concept &#8594; concept.md</text><path d="M271.748,587 L271.748,601 L251.748,605 L271.748,609 L271.748,623 A0,0 0 0 0 271.748,623 L414.4009,623 A0,0 0 0 0 414.4009,623 L414.4009,597 L404.4009,587 L271.748,587 A0,0 0 0 0 271.748,587" fill="#FFF6D5" style="stroke:#C9A227;stroke-width:0.5;"/><path d="M404.4009,587 L404.4009,597 L414.4009,597 L404.4009,587" fill="#FFF6D5" style="stroke:#C9A227;stroke-width:0.5;"/><text fill="#000000" font-family="Helvetica" font-size="13" lengthAdjust="spacing" textLength="121.6528" x="277.748" y="602.0103">&#1057;&#1090;&#1072;&#1076;&#1080;&#1103; 4. 3 &#1088;&#1072;&#1091;&#1085;&#1076;&#1072;,</text><text fill="#000000" font-family="Helvetica" font-size="13" lengthAdjust="spacing" textLength="107.4214" x="277.748" y="615.0103">&#1040;&#1076;&#1074;&#1086;&#1082;&#1072;&#1090; &#1044;&#1100;&#1103;&#1074;&#1086;&#1083;&#1072;</text><rect fill="#EAF2F8" height="32" rx="12.5" ry="12.5" style="stroke:#33668E;stroke-width:0.5;" width="218.0879" x="33.6602" y="589"/><text fill="#000000" font-family="Helvetica" font-size="12" lengthAdjust="spacing" textLength="198.0879" x="43.6602" y="608.2402">/bft-debate &#8594; &#1074;&#1077;&#1088;&#1076;&#1080;&#1082;&#1090; &#1074; concept.md</text><polygon fill="#EAF2F8" points="142.7041,485.5,154.7041,497.5,142.7041,509.5,130.7041,497.5,142.7041,485.5" style="stroke:#33668E;stroke-width:0.5;"/><polygon fill="#EAF2F8" points="66.4614,643,218.9468,643,230.9468,655,218.9468,667,66.4614,667,54.4614,655,66.4614,643" style="stroke:#33668E;stroke-width:0.5;"/><text fill="#000000" font-family="Helvetica" font-size="11" lengthAdjust="spacing" textLength="36.4106" x="146.7041" y="675.4702">&#1087;&#1088;&#1080;&#1085;&#1103;&#1090;</text><text fill="#000000" font-family="Helvetica" font-size="11" lengthAdjust="spacing" textLength="152.4854" x="66.4614" y="657.9702">&#1050;&#1086;&#1085;&#1094;&#1077;&#1087;&#1090; &#1079;&#1072;&#1073;&#1088;&#1072;&#1082;&#1086;&#1074;&#1072;&#1085; / &#1087;&#1080;&#1074;&#1086;&#1090;?</text><text fill="#000000" font-family="Helvetica" font-size="11" lengthAdjust="spacing" textLength="12.7832" x="230.9468" y="652.4702">&#1076;&#1072;</text><path d="M260.4014,694.9702 L260.4014,708.9702 L240.4014,712.9702 L260.4014,716.9702 L260.4014,730.9702 A0,0 0 0 0 260.4014,730.9702 L498.1675,730.9702 A0,0 0 0 0 498.1675,730.9702 L498.1675,704.9702 L488.1675,694.9702 L260.4014,694.9702 A0,0 0 0 0 260.4014,694.9702" fill="#FFF6D5" style="stroke:#C9A227;stroke-width:0.5;"/><path d="M488.1675,694.9702 L488.1675,704.9702 L498.1675,704.9702 L488.1675,694.9702" fill="#FFF6D5" style="stroke:#C9A227;stroke-width:0.5;"/><text fill="#000000" font-family="Helvetica" font-size="13" lengthAdjust="spacing" textLength="216.7661" x="266.4014" y="709.9805">&#1057;&#1090;&#1072;&#1076;&#1080;&#1103; 5. &#1054;&#1075;&#1088;&#1072;&#1085;&#1080;&#1095;&#1077;&#1085;&#1080;&#1103; &#1088;&#1077;&#1083;&#1080;&#1079;&#1072; &#1060;/&#1043;</text><text fill="#000000" font-family="Helvetica" font-size="13" lengthAdjust="spacing" textLength="193.2925" x="266.4014" y="722.9805">repowise + People Graph [STOP]</text><rect fill="#EAF2F8" height="32" rx="12.5" ry="12.5" style="stroke:#33668E;stroke-width:0.5;" width="195.3945" x="45.0068" y="696.9702"/><text fill="#000000" font-family="Helvetica" font-size="12" lengthAdjust="spacing" textLength="175.3945" x="55.0068" y="716.2104">/bft-constraints &#8594; constraints.md</text><path d="M279.1484,792.9702 L279.1484,806.9702 L259.1484,810.9702 L279.1484,814.9702 L279.1484,828.9702 A0,0 0 0 0 279.1484,828.9702 L485.354,828.9702 A0,0 0 0 0 485.354,828.9702 L485.354,802.9702 L475.354,792.9702 L279.1484,792.9702 A0,0 0 0 0 279.1484,792.9702" fill="#FFF6D5" style="stroke:#C9A227;stroke-width:0.5;"/><path d="M475.354,792.9702 L475.354,802.9702 L485.354,802.9702 L475.354,792.9702" fill="#FFF6D5" style="stroke:#C9A227;stroke-width:0.5;"/><text fill="#000000" font-family="Helvetica" font-size="13" lengthAdjust="spacing" textLength="177.0679" x="285.1484" y="807.9805">&#1057;&#1090;&#1072;&#1076;&#1080;&#1103; 6. &#1041;&#1058;/&#1055;&#1058;/&#1048;&#1058;/&#1060;&#1058;/&#1053;&#1060;&#1058;</text><text fill="#000000" font-family="Helvetica" font-size="13" lengthAdjust="spacing" textLength="185.2056" x="285.1484" y="820.9805">+ &#1054;&#1075;&#1088;&#1072;&#1085;&#1080;&#1095;&#1077;&#1085;&#1080;&#1103; &#1088;&#1077;&#1083;&#1080;&#1079;&#1072; [STOP]</text><rect fill="#EAF2F8" height="32" rx="12.5" ry="12.5" style="stroke:#33668E;stroke-width:0.5;" width="232.8887" x="26.2598" y="794.9702"/><text fill="#000000" font-family="Helvetica" font-size="12" lengthAdjust="spacing" textLength="212.8887" x="36.2598" y="814.2104">/bft-draft &#8594; &lt;epic&gt;.md (&#1095;&#1077;&#1088;&#1085;&#1086;&#1074;&#1080;&#1082; &#1041;&#1060;&#1058;)</text><path d="M248.4072,862.9702 L248.4072,870.4702 L228.4072,874.4702 L248.4072,878.4702 L248.4072,885.9702 A0,0 0 0 0 248.4072,885.9702 L490.3755,885.9702 A0,0 0 0 0 490.3755,885.9702 L490.3755,872.9702 L480.3755,862.9702 L248.4072,862.9702 A0,0 0 0 0 248.4072,862.9702" fill="#FFF6D5" style="stroke:#C9A227;stroke-width:0.5;"/><path d="M480.3755,862.9702 L480.3755,872.9702 L490.3755,872.9702 L480.3755,862.9702" fill="#FFF6D5" style="stroke:#C9A227;stroke-width:0.5;"/><text fill="#000000" font-family="Helvetica" font-size="13" lengthAdjust="spacing" textLength="220.9683" x="254.4072" y="877.9805">&#1057;&#1090;&#1072;&#1076;&#1080;&#1103; 7. 19 hard gates + &#1057;&#1074;&#1077;&#1090;&#1086;&#1092;&#1086;&#1088;</text><rect fill="#EAF2F8" height="32" rx="12.5" ry="12.5" style="stroke:#33668E;stroke-width:0.5;" width="171.4063" x="57.001" y="858.4702"/><text fill="#000000" font-family="Helvetica" font-size="12" lengthAdjust="spacing" textLength="151.4063" x="67.001" y="877.7104">/bft-validate &#8594; validation.md</text><polygon fill="#EAF2F8" points="142.7041,750.9702,154.7041,762.9702,142.7041,774.9702,130.7041,762.9702,142.7041,750.9702" style="stroke:#33668E;stroke-width:0.5;"/><polygon fill="#EAF2F8" points="67.4585,910.4702,217.9497,910.4702,229.9497,922.4702,217.9497,934.4702,67.4585,934.4702,55.4585,922.4702,67.4585,910.4702" style="stroke:#33668E;stroke-width:0.5;"/><text fill="#000000" font-family="Helvetica" font-size="11" lengthAdjust="spacing" textLength="39.1685" x="146.7041" y="942.9404">&#128994; / &#128993;</text><text fill="#000000" font-family="Helvetica" font-size="11" lengthAdjust="spacing" textLength="150.4912" x="67.4585" y="925.4404">&#1057;&#1074;&#1077;&#1090;&#1086;&#1092;&#1086;&#1088; &#128308; &#1085;&#1072;&#1088;&#1091;&#1096;&#1077;&#1085; &#1075;&#1077;&#1081;&#1090;?</text><text fill="#000000" font-family="Helvetica" font-size="11" lengthAdjust="spacing" textLength="12.7832" x="229.9497" y="919.9404">&#1076;&#1072;</text><path d="M243.5674,955.9404 L243.5674,976.4404 L223.5674,980.4404 L243.5674,984.4404 L243.5674,1004.9404 A0,0 0 0 0 243.5674,1004.9404 L486.9829,1004.9404 A0,0 0 0 0 486.9829,1004.9404 L486.9829,965.9404 L476.9829,955.9404 L243.5674,955.9404 A0,0 0 0 0 243.5674,955.9404" fill="#FFF6D5" style="stroke:#C9A227;stroke-width:0.5;"/><path d="M476.9829,955.9404 L476.9829,965.9404 L486.9829,965.9404 L476.9829,955.9404" fill="#FFF6D5" style="stroke:#C9A227;stroke-width:0.5;"/><text fill="#000000" font-family="Helvetica" font-size="13" lengthAdjust="spacing" textLength="222.4155" x="249.5674" y="970.9507">&#1057;&#1090;&#1072;&#1076;&#1080;&#1103; 8. JIRA &#1069;&#1087;&#1080;&#1082; + 2&#215;Confluence</text><text fill="#000000" font-family="Helvetica" font-size="13" lengthAdjust="spacing" textLength="185.2183" x="249.5674" y="983.9507">+ &#1089;&#1074;&#1103;&#1079;&#1080;; &#1084;&#1072;&#1085;&#1080;&#1092;&#1077;&#1089;&#1090; delivery.md</text><text fill="#000000" font-family="Helvetica" font-size="13" lengthAdjust="spacing" textLength="186.126" x="249.5674" y="996.9507">[STOP: &#1089;&#1091;&#1093;&#1086;&#1081; &#1087;&#1088;&#1086;&#1075;&#1086;&#1085; &#8594; &#1086;&#1082; PO]</text><rect fill="#EAF2F8" height="32" rx="12.5" ry="12.5" style="stroke:#33668E;stroke-width:0.5;" width="161.7266" x="61.8408" y="964.4404"/><text fill="#000000" font-family="Helvetica" font-size="12" lengthAdjust="spacing" textLength="141.7266" x="71.8408" y="983.6807">/bft-deliver &#8594; &#1087;&#1091;&#1073;&#1083;&#1080;&#1082;&#1072;&#1094;&#1080;&#1103;</text><rect fill="#EAF2F8" height="32" rx="12.5" ry="12.5" style="stroke:#33668E;stroke-width:0.5;" width="48.6875" x="118.3604" y="1024.9404"/><text fill="#000000" font-family="Helvetica" font-size="12" lengthAdjust="spacing" textLength="28.6875" x="128.3604" y="1044.1807">Done</text><ellipse cx="142.7041" cy="1087.9404" fill="none" rx="11" ry="11" style="stroke:#222222;stroke-width:1;"/><ellipse cx="142.7041" cy="1087.9404" fill="#222222" rx="6" ry="6" style="stroke:#222222;stroke-width:1;"/><line style="stroke:#33668E;stroke-width:1;" x1="142.7041" x2="142.7041" y1="70" y2="90"/><polygon fill="#33668E" points="138.7041,80,142.7041,90,146.7041,80,142.7041,84" style="stroke:#33668E;stroke-width:1;"/><line style="stroke:#33668E;stroke-width:1;" x1="142.7041" x2="142.7041" y1="236" y2="259.5"/><polygon fill="#33668E" points="138.7041,249.5,142.7041,259.5,146.7041,249.5,142.7041,253.5" style="stroke:#33668E;stroke-width:1;"/><line style="stroke:#33668E;stroke-width:1;" x1="142.7041" x2="142.7041" y1="168" y2="192"/><polygon fill="#33668E" points="138.7041,182,142.7041,192,146.7041,182,142.7041,186" style="stroke:#33668E;stroke-width:1;"/><line style="stroke:#33668E;stroke-width:1;" x1="208.1895" x2="235.0908" y1="156" y2="156"/><polygon fill="#33668E" points="231.0908,229.5,235.0908,239.5,239.0908,229.5,235.0908,233.5" style="stroke:#33668E;stroke-width:1;"/><line style="stroke:#33668E;stroke-width:1;" x1="235.0908" x2="235.0908" y1="156" y2="303.5"/><line style="stroke:#33668E;stroke-width:1;" x1="235.0908" x2="142.7041" y1="303.5" y2="303.5"/><line style="stroke:#33668E;stroke-width:1;" x1="142.7041" x2="142.7041" y1="303.5" y2="323.5"/><polygon fill="#33668E" points="138.7041,313.5,142.7041,323.5,146.7041,313.5,142.7041,317.5" style="stroke:#33668E;stroke-width:1;"/><line style="stroke:#33668E;stroke-width:1;" x1="142.7041" x2="142.7041" y1="122" y2="144"/><polygon fill="#33668E" points="138.7041,134,142.7041,144,146.7041,134,142.7041,138" style="stroke:#33668E;stroke-width:1;"/><line style="stroke:#33668E;stroke-width:1;" x1="142.7041" x2="142.7041" y1="355.5" y2="377.5"/><polygon fill="#33668E" points="138.7041,367.5,142.7041,377.5,146.7041,367.5,142.7041,371.5" style="stroke:#33668E;stroke-width:1;"/><line style="stroke:#33668E;stroke-width:1;" x1="142.7041" x2="142.7041" y1="409.5" y2="431.5"/><polygon fill="#33668E" points="138.7041,421.5,142.7041,431.5,146.7041,421.5,142.7041,425.5" style="stroke:#33668E;stroke-width:1;"/><line style="stroke:#33668E;stroke-width:1;" x1="142.7041" x2="142.7041" y1="561.5" y2="589"/><polygon fill="#33668E" points="138.7041,579,142.7041,589,146.7041,579,142.7041,583" style="stroke:#33668E;stroke-width:1;"/><line style="stroke:#33668E;stroke-width:1;" x1="142.7041" x2="142.7041" y1="509.5" y2="529.5"/><polygon fill="#33668E" points="138.7041,519.5,142.7041,529.5,146.7041,519.5,142.7041,523.5" style="stroke:#33668E;stroke-width:1;"/><line style="stroke:#33668E;stroke-width:1;" x1="230.9468" x2="524.6147" y1="655" y2="655"/><polygon fill="#33668E" points="520.6147,581.5,524.6147,571.5,528.6147,581.5,524.6147,577.5" style="stroke:#33668E;stroke-width:1;"/><line style="stroke:#33668E;stroke-width:1;" x1="524.6147" x2="524.6147" y1="497.5" y2="655"/><line style="stroke:#33668E;stroke-width:1;" x1="524.6147" x2="154.7041" y1="497.5" y2="497.5"/><polygon fill="#33668E" points="164.7041,493.5,154.7041,497.5,164.7041,501.5,160.7041,497.5" style="stroke:#33668E;stroke-width:1;"/><line style="stroke:#33668E;stroke-width:1;" x1="142.7041" x2="142.7041" y1="621" y2="643"/><polygon fill="#33668E" points="138.7041,633,142.7041,643,146.7041,633,142.7041,637" style="stroke:#33668E;stroke-width:1;"/><line style="stroke:#33668E;stroke-width:1;" x1="142.7041" x2="142.7041" y1="463.5" y2="485.5"/><polygon fill="#33668E" points="138.7041,475.5,142.7041,485.5,146.7041,475.5,142.7041,479.5" style="stroke:#33668E;stroke-width:1;"/><line style="stroke:#33668E;stroke-width:1;" x1="142.7041" x2="142.7041" y1="667" y2="696.9702"/><polygon fill="#33668E" points="138.7041,686.9702,142.7041,696.9702,146.7041,686.9702,142.7041,690.9702" style="stroke:#33668E;stroke-width:1;"/><line style="stroke:#33668E;stroke-width:1;" x1="142.7041" x2="142.7041" y1="826.9702" y2="858.4702"/><polygon fill="#33668E" points="138.7041,848.4702,142.7041,858.4702,146.7041,848.4702,142.7041,852.4702" style="stroke:#33668E;stroke-width:1;"/><line style="stroke:#33668E;stroke-width:1;" x1="142.7041" x2="142.7041" y1="774.9702" y2="794.9702"/><polygon fill="#33668E" points="138.7041,784.9702,142.7041,794.9702,146.7041,784.9702,142.7041,788.9702" style="stroke:#33668E;stroke-width:1;"/><line style="stroke:#33668E;stroke-width:1;" x1="229.9497" x2="502.3755" y1="922.4702" y2="922.4702"/><polygon fill="#33668E" points="498.3755,848.9702,502.3755,838.9702,506.3755,848.9702,502.3755,844.9702" style="stroke:#33668E;stroke-width:1;"/><line style="stroke:#33668E;stroke-width:1;" x1="502.3755" x2="502.3755" y1="762.9702" y2="922.4702"/><line style="stroke:#33668E;stroke-width:1;" x1="502.3755" x2="154.7041" y1="762.9702" y2="762.9702"/><polygon fill="#33668E" points="164.7041,758.9702,154.7041,762.9702,164.7041,766.9702,160.7041,762.9702" style="stroke:#33668E;stroke-width:1;"/><line style="stroke:#33668E;stroke-width:1;" x1="142.7041" x2="142.7041" y1="890.4702" y2="910.4702"/><polygon fill="#33668E" points="138.7041,900.4702,142.7041,910.4702,146.7041,900.4702,142.7041,904.4702" style="stroke:#33668E;stroke-width:1;"/><line style="stroke:#33668E;stroke-width:1;" x1="142.7041" x2="142.7041" y1="728.9702" y2="750.9702"/><polygon fill="#33668E" points="138.7041,740.9702,142.7041,750.9702,146.7041,740.9702,142.7041,744.9702" style="stroke:#33668E;stroke-width:1;"/><line style="stroke:#33668E;stroke-width:1;" x1="142.7041" x2="142.7041" y1="934.4702" y2="964.4404"/><polygon fill="#33668E" points="138.7041,954.4404,142.7041,964.4404,146.7041,954.4404,142.7041,958.4404" style="stroke:#33668E;stroke-width:1;"/><line style="stroke:#33668E;stroke-width:1;" x1="142.7041" x2="142.7041" y1="996.4404" y2="1024.9404"/><polygon fill="#33668E" points="138.7041,1014.9404,142.7041,1024.9404,146.7041,1014.9404,142.7041,1018.9404" style="stroke:#33668E;stroke-width:1;"/><line style="stroke:#33668E;stroke-width:1;" x1="142.7041" x2="142.7041" y1="1056.9404" y2="1076.9404"/><polygon fill="#33668E" points="138.7041,1066.9404,142.7041,1076.9404,146.7041,1066.9404,142.7041,1070.9404" style="stroke:#33668E;stroke-width:1;"/><?plantuml-src ZLLTRnf757tVNt6blXYvG83w8tRLYfAGff4SA-rRoSEQ7SmgooxQ7TlDcmDfqgfMSLD7hgAcbYshVQg4ZIq3AVP3_y3Tlv1Va9_GCxEBWsY2yy0mipipvzvpphqhRUa8uWC-vNxO37_aBlU8BxZDFOolzF-0k8Ft0puDDxaTFi6UBl4lVCW7DBLIaSaDtvR2Jz3hpHtANAFmKTZ0mHDrbs443sotRlfcZInHCTSSMVHSkMJM17qfd7KXxR8viYVl-zv6mNCydpxAvMPdvs-ElYnBUzsM3x_mV4luL-uoomzMVM_DjUATD_F5R75-PEUI9yN_TXMBnTaRC-ExHX4Br_FPx1moawOl3MCXhJXODvqrGQ-VF2CzIzMiHSF5IVBjrQfS8DuVaXAsw5gAU9Ut-Iz-phyJU1hmCTXLl7N1yJbMxR0HRfLSiAsO7_2vUXjk0M6RxjnBwvLIeu7t7Ntfjrz_StVvlc5NQ8h_73i5t7Fk0_yClm6tFq-Gh0eNEvMgZOH1jC3FjC03s40VkT2Hd8HDEACHDalkb0BaCpqUuUg6iWof6zJG3f_gH7JWYKNS64YlRWWd480vuNR24AvbLuQ4bM43yPrChY8CHTleipf4cSnW1Wo-G0oRce0-qlo92fbaOOQcYL_6ZvhwyL8ckJHNSZKz2xHybv30AH-7M-7FkAf12kp-C2g5BeLP2tHCM0dVDPteKTA4ipmtk2go6HrRMyVMHZK0gmNYJxa7FHyHT3ZdVxGEO0Kp5DEnaWS7cjmPwXW7LFUz5KVKT3ZnV39-5kWxKA8DMy00V4Rv87axIDyown-NN9JjSzxL58G_Q9ECMCVmHLsOKfbXA55PrAN6ZkSQc-YzwBaKPPEvACU1Dkz5nC8x0OT0bbWnPLGzkX0sTVE0xR3yKEHFKfGZNHBDY5cLxJOcnv7rrMKx4Bsb7w2pnTdIHjLsb4LVZ8PCkbAEjDVxKK6Y3wPLQ-og2y86IiWEOcUhg31L5OCI25kgejxQF92-QRio6F8uN4_MKRde3-xe21HfJo_9q_vz1II4I7oOvbzBBdBnDcoKsZGj2w-EX6xvPhtwFcKjtwn4kdugwdRvCuH2Kmf2DG2TBkYFUtnY8kspARNj8CrxQlXD3OTgUAd-Ikxq1oKnPWTqKDiQ6Y9UeF2kSi1SYZBNgMhw5gtYTA1QmRxsKmE2FLRTObppiTVqPc_d96fcgCN8hz77h_SkmT_ixHt04_ZRlzJR4ewzBlp8onVmuf7EiXzzECFM1CNdK_JLxNjvuh-ro_g8F_llRi5pA_YWe0OKcvVTfBj8SHFf8dRzxQ0O-o68kkntkWr-3qbxmuxUKJwFuaDXe26gNdF3SyMYeJlsVm00?></g></svg>